<?xml version="1.0" encoding="UTF-8"?>
<svg width="52px" height="79px" viewBox="0 0 52 79" version="1.1" xmlns="http://www.w3.org/2000/svg" xmlns:xlink="http://www.w3.org/1999/xlink">
    <!-- Generator: Sketch 58 (84663) - https://sketch.com -->
    <title>S</title>
    <desc>Created with Sketch.</desc>
    <g id="Welcome" stroke="none" stroke-width="1" fill="none" fill-rule="evenodd">
        <g id="Desktop" transform="translate(-250.000000, -276.000000)" fill="#454D5D" fill-rule="nonzero">
            <path d="M301.748,312.72 C300.02,314.448 298.58,316.32 297.068,318.192 L296.112992,319.249536 C295.63088,319.78176 295.1384,320.3088 294.62,320.784 C294.188,321.216 293.756,321.648 293.324,322.008 C293.108,322.224 292.82,322.44 292.676,322.656 C292.388,322.728 292.316,323.088 291.956,323.16 C291.38,322.368 290.876,321.504 290.444,320.568 C290.084,319.56 289.652,318.696 289.148,317.832 L288.893408,316.906944 C288.77072,316.45248 288.6584,316.0032 288.572,315.528 C288.5,315.096 288.572,314.592 288.644,314.088 C288.86,313.728 289.004,313.224 289.364,312.936 C289.436,312.432 289.724,312.144 289.94,311.712 C290.156,311.352 290.444,311.064 290.66,310.704 C289.436,310.416 288.356,309.984 287.276,309.552 C287.132,309.48 287.06,309.48 286.988,309.48 L286.844,309.336 C286.7,309.264 286.484,309.264 286.412,309.192 C286.124,309.12 285.908,308.976 285.62,308.832 C285.116,308.616 284.54,308.4 284.036,308.184 C281.948,307.248 279.86,306.24 277.916,305.16 L277.322686,303.94585 C276.683184,302.610122 276.095429,301.121143 276.26,299.256 C276.332,299.04 276.404,298.896 276.548,298.752 C276.62,298.608 276.836,298.536 276.908,298.392 C275.396,298.392 274.028,298.464 272.66,298.536 C271.796,296.232 271.292,293.568 271.292,290.544 C272.084,290.328 273.164,290.256 273.884,290.616 C273.884,290.976 273.74,291.192 273.812,291.552 C274.676,291.768 275.756,291.768 276.62,292.056 C276.836,292.056 276.62,292.2 276.548,292.272 C276.476,292.344 276.332,292.344 276.332,292.488 L275.9,292.92 L275.298656,293.422848 C275.16848,293.52768 275.036,293.6256 274.892,293.712 C274.532,293.928 274.172,294.144 273.812,294.432 C273.38,294.576 273.02,294.792 272.66,295.008 C272.876,295.08 273.236,294.864 273.596,294.936 C273.884,294.792 274.244,294.792 274.46,294.648 C275.108,294.576 275.756,294.432 276.332,294.216 C277.556,293.928 278.636,293.496 280.004,293.28 C280.652,293.496 281.084,293.856 281.66,294.072 L281.996601,294.632597 C283.356899,296.860828 284.844615,298.956923 285.044,302.28 C285.476,301.704 285.836,301.128 286.196,300.552 C286.916,301.272 287.348,302.352 287.996,303.144 C288.5,304.08 288.932,305.088 289.508,306.024 C289.652,306.6 289.868,307.032 290.084,307.608 C290.3,308.184 290.444,308.76 290.66,309.192 C290.948,310.344 291.308,311.424 291.668,312.576 C291.812,312 291.668,311.424 291.74,310.704 C291.74,310.056 291.668,309.408 291.668,308.76 C291.668,307.464 291.812,306.24 291.812,304.944 L292.02575,303.118125 C292.2485,301.3125 292.532,299.598 293.18,298.248 C293.117,297.996 292.888625,297.9645 292.687813,297.815859 L292.604,297.744 C292.46,297.6 292.244,297.528 292.1,297.312 C291.596,297.168 291.308,296.736 290.804,296.592 C291.164,296.232 291.668,295.944 292.172,295.728 C291.956,295.08 291.236,295.008 290.876,294.504 C290.444,294.216 290.012,293.856 289.508,293.568 C288.716,292.776 287.78,292.128 287.132,291.192 C286.844,291.048 286.7,290.76 286.556,290.544 C286.34,290.328 286.124,290.112 285.98,289.896 C285.62,289.464 285.332,288.96 285.044,288.456 C284.396,287.52 284.396,286.008 283.748,285.072 C282.596,285.072 281.444,285.36 280.436,285.072 C280.148,285 280.148,284.64 279.86,284.568 C279.716,284.352 279.572,284.208 279.356,284.064 C279.14,283.632 278.78,283.344 278.42,282.984 L277.703456,282.176448 C277.33712,281.76 276.9656,281.328 276.62,280.896 C276.044,280.176 275.396,279.456 274.82,278.736 C274.172,278.016 273.668,277.224 273.02,276.576 C273.308,277.152 273.74,277.584 273.956,278.232 C274.388,278.808 274.676,279.384 274.892,279.96 C275.18,280.176 275.252,280.608 275.396,280.824 L275.639648,281.409792 C275.68688,281.5296 275.7272,281.6448 275.756,281.76 C276.044,282.336 276.26,283.056 276.476,283.704 C275.756,283.488 275.18,283.056 274.604,282.696 C273.956,282.408 273.452,282.048 272.948,281.616 C271.868,280.824 270.788,279.96 269.924,279.024 C269.708,281.184 268.988,282.768 267.764,283.92 C266.9,284.496 266.036,285 264.884,285.288 C265.964,282.336 266.756,279.168 267.836,276.216 C267.764,276.072 267.692,276.36 267.62,276.36 C267.476,276.432 267.476,276.576 267.332,276.648 C267.116,276.792 267.044,277.08 266.828,277.224 L266.11925,278.09475 C266.0405,278.1915 265.964,278.286 265.892,278.376 C265.316,279.24 264.74,280.032 264.164,280.824 C262.94,282.48 261.788,284.136 260.996,286.152 C260.348,286.224 259.844,286.368 259.268,286.44 C259.052,286.512 258.836,286.512 258.908,286.224 C258.782,286.413 258.656,286.546875 258.385297,286.577391 L258.26,286.584 C257.684,286.584 257.324,286.8 256.676,286.728 C256.532,286.8 256.892,286.944 256.892,287.016 C257.036,287.16 257.036,287.304 257.18,287.376 C257.396,287.592 257.54,287.808 257.756,287.952 C257.396,288.528 256.964,288.888 256.604,289.392 C255.668,290.112 254.66,290.832 253.652,291.48 C252.572,292.056 251.636,292.776 250.268,293.064 C251.42,293.28 252.284,293.712 253.004,294.288 C252.716,294.36 251.996,294.216 251.636,294.144 C251.132,294.144 250.628,294.072 250.268,294 C250.628,294.792 251.132,295.512 251.492,296.304 C252.572,296.952 253.796,297.528 254.804,298.248 C255.812,298.968 256.748,299.832 257.54,300.768 C257.756,301.632 258.26,302.28 258.332,303.288 C258.476,304.152 258.62,305.16 258.692,306.168 C258.836,308.112 258.908,310.56 258.692,312.504 C258.548,316.68 257.828,320.352 256.748,323.664 C257.18,324.96 257.684,326.184 258.26,327.336 C258.692,328.632 259.34,329.784 259.916,330.864 C259.412,331.008 258.692,330.648 258.044,330.648 C257.54,330.504 256.82,330.504 256.1,330.432 C255.956,330.432 256.1,330.648 256.244,330.576 C256.244,330.648 256.316,330.72 256.388,330.792 C256.46,330.936 256.676,331.008 256.676,331.152 C257.036,331.224 257.18,331.584 257.54,331.728 C257.684,332.016 258.044,332.088 258.26,332.376 C258.548,332.52 258.692,332.808 259.052,332.952 C259.988,333.816 261.14,334.536 262.148,335.328 C262.292,335.832 262.508,336.264 262.652,336.768 C262.724,336.984 262.868,337.2 262.868,337.488 C263.084,337.632 263.084,337.92 263.372,337.92 C263.516,337.488 263.3,336.768 263.3,336.192 C263.948,336.552 264.38,337.056 265.028,337.488 C265.532,337.92 266.108,338.352 266.612,338.856 C267.26,340.152 267.62,341.664 267.908,343.32 C268.124,344.976 268.628,346.416 268.7,348.216 C268.916,347.424 269.132,346.632 269.492,345.984 L269.669408,345.613056 C269.76272,345.41952 269.8664,345.2208 269.996,345.048 C270.068,344.832 270.284,344.832 270.356,344.616 C270.5,344.544 270.5,344.328 270.716,344.256 C270.788,344.544 270.788,345.048 270.716,345.264 C271.076,345.12 271.22,344.832 271.652,344.688 C271.868,344.472 272.228,344.328 272.516,344.184 C272.876,344.04 273.092,343.824 273.524,343.752 C273.74,343.536 274.244,343.536 274.46,343.32 C275.108,343.608 275.684,344.04 276.188,344.472 C276.116,344.76 275.756,344.832 275.684,345.048 C275.468,345.264 275.324,345.48 275.108,345.624 C274.748,346.056 274.388,346.416 274.028,346.848 C273.668,347.136 273.38,347.64 272.948,347.928 C272.732,348.432 272.156,348.648 271.94,349.08 C272.876,348.576 273.74,347.928 274.604,347.28 C275.396,346.632 276.332,346.128 277.052,345.408 C277.556,345.552 277.7,346.056 278.06,346.344 L278.562848,346.945344 C278.66768,347.07552 278.7656,347.208 278.852,347.352 C279.5,348 280.004,348.792 280.508,349.512 C281.588,350.952 282.524,352.464 283.388,354.12 L283.46,354.12 C283.1,352.968 282.956,351.456 283.028,350.016 C283.1,348.648 283.46,347.28 283.748,346.272 C284.18,345.624 284.468,344.76 284.972,344.184 C285.116,343.752 285.332,343.464 285.62,343.248 C285.764,343.032 285.908,342.96 285.98,342.816 C286.124,342.672 286.268,342.384 286.412,342.456 C287.06,343.608 287.06,345.336 287.492,346.632 C287.78,343.896 288.932,342.096 289.58,339.792 C290.084,338.856 290.516,337.704 290.804,336.624 C291.308,335.616 291.596,334.392 292.1,333.384 C292.46,333.384 292.676,333.24 293.036,333.312 C292.964,332.664 292.964,331.872 292.82,331.296 C294.116,328.056 295.7,325.032 297.068,321.864 C298.58,318.768 299.876,315.528 301.82,312.864 L301.82,312.72 L301.748,312.72 Z M271.796,287.808 C272.228,288.168 272.66,288.528 273.02,288.96 C272.66,289.176 272.516,288.672 272.3,288.528 C272.1272,288.3552 272.00048,288.1824 271.882976,287.972736 L271.796,287.808 Z M282.452,325.536 C282.596,325.176 282.596,324.6 282.668,324.168 L282.668,322.584 C282.668,322.512 282.74,322.512 282.74,322.44 C282.812,322.368 282.812,322.44 282.884,322.44 C283.316,322.944 283.676,323.52 284.036,324.096 C283.82,324.672 283.532,325.104 283.244,325.536 C283.1,325.824 282.884,325.968 282.812,326.256 L282.545621,326.511044 C282.437306,326.621878 282.349143,326.739429 282.308,326.904 C282.164,326.472 282.452,326.04 282.452,325.536 Z M269.996,291.336 C270.14,293.856 270.5,296.088 271.148,298.104 C270.788,297.96 270.428,297.672 270.068,297.456 C269.78,297.24 269.348,297.096 269.06,296.808 C268.7,296.736 268.412,296.592 268.124,296.448 C268.188,295.488 268.252,294.584889 268.518272,293.789235 L268.628,293.496 C268.772,293.064 268.988,292.704 269.132,292.344 C269.276,292.128 269.42,291.984 269.564,291.84 C269.636,291.624 269.852,291.48 269.996,291.336 Z M269.276,290.04 C269.564,290.04 269.204,290.184 269.204,290.256 C269.132,290.328 269.06,290.4 268.988,290.544 L268.794464,290.721408 C268.69424,290.81472 268.5992,290.9184 268.556,291.048 C268.196,291.336 268.052,291.84 267.764,292.272 C267.332,293.208 266.972,294.144 266.9,295.44 C266.756,295.656 266.684,295.296 266.468,295.224 C266.468,295.008 266.18,295.08 266.108,294.864 C265.82,294.648 265.532,294.432 265.316,294.072 L265.831245,293.107245 C266.594716,291.700049 267.457333,290.392 269.276,290.04 Z M261.428,308.688 C260.996,308.328 260.78,307.752 260.492,307.176 L260.248501,306.69488 C260.051184,306.300245 259.874857,305.910857 259.772,305.448 C259.34,304.224 259.124,302.784 258.836,301.488 C258.764,301.272 258.404,301.344 258.332,301.128 C258.332,300.624 258.62,300.336 258.836,300.048 C259.052,299.904 259.34,299.76 259.628,299.688 L259.772,299.688 C260.348,300.264 261.068,300.768 261.644,301.272 L262.095522,301.619615 C262.286122,301.771592 262.456571,301.930286 262.58,302.136 C262.94,302.424 263.3,302.64 263.444,303 C262.508,304.656 261.716,306.456 261.428,308.688 Z M276.908,332.952 C276.332,333.456 275.612,333.888 274.892,334.248 L273.848247,334.24563 C272.646667,334.237333 271.508,334.2 270.5,334.032 C270.284,333.672 269.996,333.384 269.708,333.024 C269.564,332.88 269.492,332.664 269.276,332.592 C269.276,332.376 268.916,332.232 269.06,332.088 C272.372,332.232 275.756,332.088 278.06,331.008 C278.276,330.936 278.276,331.152 278.42,331.152 C278.492,331.368 278.204,331.44 278.132,331.656 C278.06,331.8 277.844,331.944 277.772,332.16 C277.412,332.376 277.196,332.736 276.908,332.952 Z M277.628,334.032 L278.314592,333.361536 C278.65328,333.02976 278.9816,332.6928 279.284,332.304 C279.572,332.736 279.788,333.096 280.004,333.6 C279.284,333.816 278.492,333.96 277.628,334.032 Z M280.076,328.704 C278.132,329.856 275.828,330.648 272.876,330.864 L271.733,330.86175 C270.5855,330.855 269.438,330.828 268.412,330.72 C267.836,328.92 267.548,326.976 267.332,324.816 C267.188,324.528 267.044,324.312 266.9,324.024 C266.612,323.16 266.396,322.296 266.252,321.36 C265.964,321.432 266.108,321.864 266.036,322.008 C266.036,322.368 265.892,322.512 265.892,322.872 C265.676,323.304 265.604,323.808 265.46,324.24 C265.172,325.176 264.74,326.04 264.308,326.832 C263.948,326.76 263.876,326.472 263.588,326.328 C263.3,322.584 263.084,318.696 262.652,315.024 C263.876,314.664 264.812,315.456 265.892,315.672 C266.036,315.6 265.748,315.456 265.676,315.384 C265.604,315.312 265.604,315.168 265.46,315.096 C265.316,314.88 265.172,314.664 265.028,314.52 L264.556256,313.675008 C264.45488,313.4976 264.3512,313.3248 264.236,313.152 L263.372,311.856 C263.156,311.424 262.796,311.064 262.58,310.56 C262.508,307.968 263.372,305.736 264.38,303.936 C264.452,303.936 264.452,304.008 264.452,304.008 C264.884,304.368 265.244,304.728 265.532,305.16 L265.765856,305.389248 C265.87472,305.4912 265.9784,305.5776 266.108,305.664 C266.324,305.88 266.396,306.168 266.684,306.24 C266.9,306.096 266.972,305.808 267.044,305.592 C267.26,305.376 267.332,305.16 267.404,304.872 C267.908,305.016 268.268,305.232 268.628,305.448 C268.988,305.664 269.492,305.808 269.78,306.096 C270.572,306.456 271.364,306.888 272.012,307.392 C272.732,307.824 273.308,308.4 273.956,308.976 L274.38575,309.411375 C274.811,309.8535 275.216,310.326 275.54,310.92 L275.981,311.03025 C276.4265,311.145 276.872,311.28 277.196,311.496 C277.484,311.496 277.268,311.64 277.268,311.784 C277.268,311.928 277.34,311.928 277.412,312.072 C277.916,312.576 278.636,312.936 278.852,313.728 C277.124,313.512 275.612,313.296 273.956,312.936 C272.372,312.576 270.932,312 269.132,311.928 C269.492,312.216 270.14,312.216 270.644,312.432 C271.22,312.576 271.652,312.792 272.228,312.936 L273.376544,313.372608 C273.95888,313.59552 274.5464,313.8288 275.108,314.088 C277.052,314.88 278.564,316.104 280.076,317.328 L280.147296,317.759302 C280.381422,319.326851 280.43287,321.447652 279.644,322.368 C279.716,322.44 279.86,322.224 280.004,322.152 C280.058,322.098 280.1525,322.044 280.257125,321.99 L280.364,321.936 C280.652,321.792 280.94,321.648 281.372,321.648 C281.516,322.512 281.3,323.376 281.372,324.312 C281.228,326.04 280.652,327.408 280.076,328.704 Z M284.684,328.2 C284.612,328.344 284.396,328.488 284.18,328.56 C283.82,328.704 283.46,328.92 283.172,329.136 C282.38,329.352 281.66,329.712 280.868,330 C280.652,329.928 281.012,329.856 280.94,329.712 C281.012,329.64 281.012,329.496 281.156,329.496 L281.471,329.28 C281.57,329.208 281.66,329.136 281.732,329.064 L282.184736,328.713792 C282.41456,328.53408 282.6392,328.344 282.812,328.128 C283.46,327.552 284.036,326.76 284.54,325.968 C284.54,325.896 284.612,325.824 284.612,325.752 L284.612,325.824 C284.684,325.824 284.684,325.824 284.684,325.896 L284.865784,326.438834 C285.011673,326.884898 285.136571,327.325714 285.188,327.84 C285.116,328.128 284.9,328.128 284.684,328.2 Z" id="S"></path>
        </g>
    </g>
</svg>